# xmcd
# 
# Track frame offsets:
#     150
#     25326
#     48654
#     72699
#     99276
#     122615
#     148928
#     165419
#     194671
#     218700
#     240062
# 
# Disc length: 3629
# 
# Revision: 2
# Processed by: cddbd v1.5.2PL0 Copyright (c) Steve Scherf et al.
# Submitted via: fre:ac v1.0.17
# 
DISCID=9c0e2b0b
DTITLE=Rosario Giuliani - Mr Dodo
DYEAR=2002
DGENRE=Jazz
TTITLE0=Mr Dodo
TTITLE1=September
TTITLE2=Home
TTITLE3=By Night For Ever
TTITLE4=The Blessing
TTITLE5=Francy's Song
TTITLE6=Sortie
TTITLE7=The Cover
TTITLE8=Monsieur F.D.
TTITLE9=Mimi
TTITLE10=From The Ashes
EXTD=YEAR: 2002
EXTT0=
EXTT1=
EXTT2=
EXTT3=
EXTT4=
EXTT5=
EXTT6=
EXTT7=
EXTT8=
EXTT9=
EXTT10=
PLAYORDER=
